<svg width="50" height="50" viewBox="0 0 50 50" fill="none" xmlns="http://www.w3.org/2000/svg">
<path d="M25 0C29.2078 0 32.643 0.0493097 35.3057 0.147929C37.574 0.246548 39.5957 0.641026 41.3708 1.33136C43.0802 1.98882 44.5595 2.94214 45.8087 4.19132C47.0579 5.4405 48.0112 6.91979 48.6686 8.62919C49.359 10.4043 49.7535 12.426 49.8521 14.6943C49.9507 17.357 50 20.7922 50 25C50 29.2078 49.9507 32.643 49.8521 35.3057C49.7535 37.574 49.359 39.5957 48.6686 41.3708C48.0112 43.0802 47.0579 44.5595 45.8087 45.8087C44.5595 47.0579 43.0802 48.0112 41.3708 48.6686C39.5957 49.359 37.574 49.7535 35.3057 49.8521C32.643 49.9507 29.2078 50 25 50C20.7922 50 17.357 49.9507 14.6943 49.8521C12.426 49.7535 10.4043 49.359 8.62919 48.6686C6.91979 48.0112 5.4405 47.0579 4.19132 45.8087C2.94214 44.5595 1.98882 43.0802 1.33136 41.3708C0.641026 39.5957 0.246548 37.574 0.147929 35.3057C0.0493097 32.643 0 29.2078 0 25C0 20.7922 0.0493097 17.357 0.147929 14.6943C0.246548 12.426 0.641026 10.4043 1.33136 8.62919C1.98882 6.91979 2.94214 5.4405 4.19132 4.19132C5.4405 2.94214 6.91979 1.98882 8.62919 1.33136C10.4043 0.641026 12.426 0.246548 14.6943 0.147929C17.357 0.0493097 20.7922 0 25 0ZM25 3.25444C20.6279 3.25444 17.0611 3.30375 14.2998 3.40237C12.5247 3.46811 10.881 3.78041 9.36884 4.33925C7.00197 5.32544 5.32544 7.00197 4.33925 9.36884C3.78041 10.881 3.46811 12.5247 3.40237 14.2998C3.30375 17.0611 3.25444 20.6279 3.25444 25C3.25444 29.3721 3.30375 32.9389 3.40237 35.7002C3.46811 37.4753 3.78041 39.119 4.33925 40.6312C5.32544 42.998 7.00197 44.6746 9.36884 45.6607C10.881 46.2196 12.5247 46.5319 14.2998 46.5976C17.0611 46.6963 20.6279 46.7456 25 46.7456C29.3721 46.7456 32.9389 46.6963 35.7002 46.5976C37.4753 46.5319 39.119 46.2196 40.6312 45.6607C42.998 44.6746 44.6746 42.998 45.6607 40.6312C46.2196 39.119 46.5319 37.4753 46.5976 35.7002C46.6963 32.9389 46.7456 29.3721 46.7456 25C46.7456 20.6279 46.6963 17.0611 46.5976 14.2998C46.5319 12.5247 46.2196 10.881 45.6607 9.36884C44.6746 7.00197 42.998 5.32544 40.6312 4.33925C39.119 3.78041 37.4753 3.46811 35.7002 3.40237C32.9389 3.30375 29.3721 3.25444 25 3.25444ZM25 35.0099C27.7613 35.0099 30.12 34.0319 32.0759 32.0759C34.0319 30.12 35.0099 27.7613 35.0099 25C35.0099 22.2387 34.0319 19.88 32.0759 17.9241C30.12 15.9681 27.7613 14.9901 25 14.9901C22.2387 14.9901 19.88 15.9681 17.9241 17.9241C15.9681 19.88 14.9901 22.2387 14.9901 25C14.9901 27.7613 15.9681 30.12 17.9241 32.0759C19.88 34.0319 22.2387 35.0099 25 35.0099ZM25 12.1795C28.5503 12.1795 31.5746 13.4287 34.073 15.927C36.5713 18.4254 37.8205 21.4497 37.8205 25C37.8205 28.5503 36.5713 31.5746 34.073 34.073C31.5746 36.5713 28.5503 37.8205 25 37.8205C21.4497 37.8205 18.4254 36.5713 15.927 34.073C13.4287 31.5746 12.1795 28.5503 12.1795 25C12.1795 21.4497 13.4287 18.4254 15.927 15.927C18.4254 13.4287 21.4497 12.1795 25 12.1795ZM41.3708 11.6864C41.3708 12.5082 41.0749 13.2068 40.4832 13.7821C39.8915 14.3573 39.1683 14.645 38.3136 14.645C37.4918 14.645 36.7932 14.3573 36.2179 13.7821C35.6427 13.2068 35.355 12.5082 35.355 11.6864C35.355 10.8317 35.6427 10.1085 36.2179 9.51677C36.7932 8.92505 37.4918 8.62919 38.3136 8.62919C39.1354 8.62919 39.8504 8.93327 40.4586 9.54142C41.0667 10.1496 41.3708 10.8646 41.3708 11.6864Z" fill="#F6F6F6"/>
</svg>
