<svg width="30" height="30" viewBox="0 0 50 50" fill="none" xmlns="http://www.w3.org/2000/svg">
<path d="M20.4102 15.1855C24.4141 15.2832 27.8971 15.6169 30.8594 16.1865C33.8216 16.7562 36.5885 17.6921 39.1602 18.9941C39.6484 19.222 40.0716 19.4743 40.4297 19.751C40.7878 20.0277 41.0319 20.3288 41.1621 20.6543C41.2923 20.9798 41.3249 21.4111 41.2598 21.9482C41.1947 22.4854 41.0319 22.8353 40.7715 22.998C40.6087 23.1283 40.4053 23.234 40.1611 23.3154C39.917 23.3968 39.6729 23.4619 39.4287 23.5107C39.1846 23.5596 38.9404 23.5677 38.6963 23.5352C38.4521 23.5026 38.2324 23.4538 38.0371 23.3887C32.959 20.752 27.0996 19.5638 20.459 19.8242C18.7337 19.8893 16.276 20.2311 13.0859 20.8496C11.263 21.2077 10.1562 20.7031 9.76562 19.3359C9.60286 18.8151 9.611 18.3431 9.79004 17.9199C9.96908 17.4967 10.2458 17.1794 10.6201 16.9678C10.9945 16.7562 11.4421 16.6016 11.9629 16.5039C12.5488 16.3737 15.3646 15.9342 20.4102 15.1855ZM21.5332 22.6074C24.3652 22.8027 27.0345 23.2178 29.541 23.8525C32.0475 24.4873 34.4076 25.4395 36.6211 26.709C36.7513 26.7741 36.8978 26.8717 37.0605 27.002C37.2233 27.1322 37.3698 27.2786 37.5 27.4414C37.6302 27.6042 37.7523 27.7751 37.8662 27.9541C37.9801 28.1331 38.0697 28.3122 38.1348 28.4912C38.1999 28.6702 38.2324 28.8411 38.2324 29.0039C38.2975 29.7201 37.9883 30.1839 37.3047 30.3955C36.6211 30.6071 35.8398 30.485 34.9609 30.0293C29.2318 27.002 22.8841 26.0742 15.918 27.2461C15.8203 27.2461 15.4948 27.3356 14.9414 27.5146C14.388 27.6937 13.9811 27.7507 13.7207 27.6855C13.623 27.653 13.5173 27.6204 13.4033 27.5879C13.2894 27.5553 13.1836 27.5146 13.0859 27.4658L12.793 27.3193L12.5 27.1484L12.1826 26.9531L11.8896 26.7822L11.5967 26.6113L11.2793 26.4648C11.377 26.3021 11.5234 26.0173 11.7187 25.6104C11.9141 25.2034 12.1012 24.8779 12.2803 24.6338C12.4593 24.3896 12.6465 24.2513 12.8418 24.2187C13.6882 23.9909 14.5671 23.7956 15.4785 23.6328C16.39 23.4701 17.5049 23.2829 18.8232 23.0713C20.1416 22.8597 21.0449 22.7051 21.5332 22.6074ZM20.5078 30.0781C26.0417 30.1758 30.5664 31.2174 34.082 33.2031C34.4076 33.3659 34.6598 33.5205 34.8389 33.667C35.0179 33.8135 35.2051 33.9925 35.4004 34.2041C35.5957 34.4157 35.6771 34.6517 35.6445 34.9121C35.612 35.1725 35.4818 35.4329 35.2539 35.6934C35.0911 35.9538 34.7005 36.1003 34.082 36.1328C33.4635 36.1654 32.9915 36.084 32.666 35.8887C28.4017 33.61 23.2422 32.8451 17.1875 33.5937C16.9596 33.6263 16.6748 33.6833 16.333 33.7646C15.9912 33.846 15.6738 33.9193 15.3809 33.9844C15.0879 34.0495 14.8112 34.0658 14.5508 34.0332C14.2904 34.0007 14.0381 33.9355 13.7939 33.8379C13.5498 33.7402 13.2568 33.6019 12.915 33.4229C12.5732 33.2438 12.3372 33.1217 12.207 33.0566C12.2721 32.9264 12.3698 32.7799 12.5 32.6172C12.6302 32.4544 12.736 32.2998 12.8174 32.1533C12.8988 32.0068 12.9964 31.8604 13.1104 31.7139C13.2243 31.5674 13.3464 31.4453 13.4766 31.3477C13.6068 31.25 13.7207 31.1849 13.8184 31.1523C14.5996 30.9896 15.4053 30.835 16.2354 30.6885C17.0654 30.542 17.9525 30.4118 18.8965 30.2979C19.8405 30.1839 20.3776 30.1107 20.5078 30.0781ZM50 25C50 31.901 47.5586 37.793 42.6758 42.6758C37.793 47.5586 31.901 50 25 50C18.099 50 12.207 47.5586 7.32422 42.6758C2.44141 37.793 0 31.901 0 25C0 18.099 2.44141 12.207 7.32422 7.32422C8.13802 6.51042 8.97624 5.76172 9.83887 5.07812C10.7015 4.39453 11.5967 3.78418 12.5244 3.24707C13.4521 2.70996 14.4124 2.23796 15.4053 1.83105C16.3981 1.42415 17.4072 1.08236 18.4326 0.805664C19.458 0.528971 20.5241 0.325521 21.6309 0.195312C22.7376 0.0651042 23.8607 0 25 0C31.901 0 37.793 2.44141 42.6758 7.32422C47.5586 12.207 50 18.099 50 25ZM46.875 25C46.875 18.9453 44.7428 13.7858 40.4785 9.52148C36.2142 5.25716 31.0547 3.125 25 3.125C18.9453 3.125 13.7858 5.25716 9.52148 9.52148C5.25716 13.7858 3.125 18.9453 3.125 25C3.125 31.0547 5.25716 36.2305 9.52148 40.5273C13.7858 44.8242 18.9453 46.9727 25 46.9727C31.0547 46.9727 36.2142 44.8242 40.4785 40.5273C44.7428 36.2305 46.875 31.0547 46.875 25Z" fill="#F6F6F6"/>
</svg>
